<svg width="39" height="39" fill="none" xmlns="http://www.w3.org/2000/svg"><path d="M24.797 18.143a1.93 1.93 0 0 0-1.93 2.103h3.975a1.929 1.929 0 0 0-2.045-2.103ZM14.63 20.284h-2.374v3.743h1.93c1.929 0 2.778-.636 2.778-1.93 0-1.292-.888-1.813-2.335-1.813Zm1.678-3.434c0-1.023-.675-1.64-1.833-1.64h-2.219v3.357h1.64c1.717 0 2.412-.617 2.412-1.717Z" fill="#fff" fill-opacity=".5"/><path d="M19.472.411a19.294 19.294 0 1 0 0 38.589 19.294 19.294 0 0 0 0-38.589ZM15.034 25.88H9.825V13.338h5.21c2.257 0 3.742 1.177 3.742 3.087a2.7 2.7 0 0 1-2.16 2.76 2.934 2.934 0 0 1 2.855 3.164c0 2.238-1.93 3.53-4.438 3.53Zm6.85-11.577h5.788v.965h-5.788v-.965Zm7.235 7.428h-6.367v.27a2.064 2.064 0 0 0 2.103 2.296 1.737 1.737 0 0 0 1.93-1.215h2.334a3.859 3.859 0 0 1-4.187 2.99 4.148 4.148 0 0 1-4.553-4.437v-.85a4.07 4.07 0 0 1 4.4-4.34 4.09 4.09 0 0 1 4.34 4.38v.906Z" fill="#fff" fill-opacity=".5"/></svg>