<svg width="76" height="64" fill="none" xmlns="http://www.w3.org/2000/svg"><g stroke="#7B4AE2" stroke-linecap="round" stroke-linejoin="round"><path d="M16 20h22m12 0h22m-28 6a6 6 0 1 0 0-12 6 6 0 0 0 0 12ZM22 50a6 6 0 1 0 0-12 6 6 0 0 0 0 12Zm44 0a6 6 0 1 0 0-12 6 6 0 0 0 0 12Z"/><path d="M49.95 20.825A22.025 22.025 0 0 1 65.65 38m-43.3 0a22.025 22.025 0 0 1 15.7-17.175"/></g><g filter="url(#a)"><circle cx="24" cy="34" r="20" fill="#7B4AE2" fill-opacity=".2" shape-rendering="crispEdges"/></g><defs><filter id="a" x="0" y="14" width="48" height="48" filterUnits="userSpaceOnUse" color-interpolation-filters="sRGB"><feFlood flood-opacity="0" result="BackgroundImageFix"/><feColorMatrix in="SourceAlpha" values="0 0 0 0 0 0 0 0 0 0 0 0 0 0 0 0 0 0 127 0" result="hardAlpha"/><feOffset dy="4"/><feGaussianBlur stdDeviation="2"/><feComposite in2="hardAlpha" operator="out"/><feColorMatrix values="0 0 0 0 0 0 0 0 0 0 0 0 0 0 0 0 0 0 0.25 0"/><feBlend in2="BackgroundImageFix" result="effect1_dropShadow_21_2905"/><feBlend in="SourceGraphic" in2="effect1_dropShadow_21_2905" result="shape"/></filter></defs></svg>