<svg width="37" height="36" fill="none" xmlns="http://www.w3.org/2000/svg"><g clip-path="url(#a)"><path fill-rule="evenodd" clip-rule="evenodd" d="M12.889.074A5.97 5.97 0 0 0 6.92 6.043a5.97 5.97 0 0 0 5.969 5.968A5.97 5.97 0 0 0 6.92 17.98a5.97 5.97 0 0 0 5.969 5.968 5.97 5.97 0 0 0-5.969 5.968 5.97 5.97 0 0 0 5.969 5.969 5.97 5.97 0 0 0 5.968-5.969V17.98a5.97 5.97 0 0 0 5.968 5.968 5.97 5.97 0 0 0 5.969-5.968 5.97 5.97 0 0 0-5.969-5.969 5.97 5.97 0 0 0 5.969-5.968A5.97 5.97 0 0 0 24.825.074H12.89Zm11.936 11.937h-5.968v5.969a5.97 5.97 0 0 1 5.968-5.969Z" fill="#7B4AE2" fill-opacity=".5"/></g><defs><clipPath id="a"><path fill="#fff" transform="translate(.905 .074)" d="M0 0h35.81v35.81H0z"/></clipPath></defs></svg>