<svg width="37" height="40" fill="none" xmlns="http://www.w3.org/2000/svg"><path d="m.834 21.348 4.18-3.494a2.219 2.219 0 0 1 3.18.337 2.37 2.37 0 0 1-.328 3.27l-2.023 1.69L20.53 35.873c.968.81 1.115 2.273.328 3.269a2.231 2.231 0 0 1-1.755.858c-.501 0-1.006-.17-1.425-.52L.834 24.953A2.35 2.35 0 0 1 0 23.151c0-.7.307-1.361.834-1.803Z" fill="#fff"/><path d="M19.395 0c1.2.01 2.166 1.018 2.156 2.252l-.187 35.531c-.01 1.234-.99 2.227-2.19 2.217a2.113 2.113 0 0 1-.855-.187 2.24 2.24 0 0 1-1.301-2.065l.187-35.531c.01-1.234.99-2.227 2.19-2.217Z" fill="#fff"/><path d="m28.934 24.441 1.544-1.29-5.498-4.596c-.969-.81-1.115-2.273-.328-3.269a2.218 2.218 0 0 1 3.18-.337l7.655 6.4a2.35 2.35 0 0 1 .834 1.802c0 .7-.306 1.362-.834 1.803l-3.7 3.093c-.42.35-.924.521-1.425.521a2.232 2.232 0 0 1-1.755-.858 2.37 2.37 0 0 1 .327-3.269Z" fill="#7B4AE2"/></svg>