<svg width="45" height="40" fill="none" xmlns="http://www.w3.org/2000/svg"><circle cx="32.5" cy="20.5" r="12.5" fill="#7B4AE2" fill-opacity=".2"/><path d="M34.625 23.344c.26-1.138.385-2.302.375-3.469C34.938 11.61 28.094 4.922 19.844 5A15 15 0 0 0 15 34.14a3.735 3.735 0 0 0 5-3.53V30a3.734 3.734 0 0 1 3.75-3.75h7.219a3.75 3.75 0 0 0 3.656-2.906v0Z" stroke="#7B4AE2" stroke-linecap="round" stroke-linejoin="round"/><path d="M20 13.125a1.25 1.25 0 1 0 0-2.5 1.25 1.25 0 0 0 0 2.5Zm-7.031 4.063a1.25 1.25 0 1 0 0-2.5 1.25 1.25 0 0 0 0 2.5Zm0 8.125a1.25 1.25 0 1 0 0-2.5 1.25 1.25 0 0 0 0 2.5Zm14.062-8.125a1.25 1.25 0 1 0 0-2.5 1.25 1.25 0 0 0 0 2.5Z" fill="#7B4AE2"/></svg>