<svg width="245" height="243" fill="none" xmlns="http://www.w3.org/2000/svg"><path d="M51.679 27.46 19.077 7.522a1.813 1.813 0 0 0-2.765 1.54v39.876a1.812 1.812 0 0 0 2.765 1.54l32.602-19.937a1.79 1.79 0 0 0 0-3.081Z" fill="#fff" fill-opacity=".2"/><path d="m243.718 231.279-14.991-9.168a.838.838 0 0 0-1.156.287.836.836 0 0 0-.115.422v18.335a.83.83 0 0 0 .428.727.84.84 0 0 0 .843-.019l14.991-9.167a.83.83 0 0 0 .404-.709.818.818 0 0 0-.404-.708v0Z" stroke="#7B4AE2" stroke-opacity=".5" stroke-linecap="round" stroke-linejoin="round"/></svg>