<svg width="172" height="173" fill="none" xmlns="http://www.w3.org/2000/svg"><path fill="#1E1E1E" d="M0 0h172v173H0z"/><g clip-path="url(#a)"><path fill="#090E16" d="M-640-310h1920v8320H-640z"/><path d="M565.667 152.713c0-142.305-115.436-257.667-257.833-257.667C165.436-104.954 50 10.407 50 152.713c0 142.305 115.436 257.666 257.834 257.666 142.397 0 257.833-115.361 257.833-257.666Z" fill="#7B4AE2" fill-opacity=".2"/><g filter="url(#b)"><circle cx="85.81" cy="82.794" r="35.81" fill="#090E16"/></g><path d="M99.207 76.496c-.417-.144-.85-.28-1.295-.408a24.6 24.6 0 0 0 .2-.884c.98-4.761.34-8.596-1.85-9.86-2.1-1.21-5.534.052-9.002 3.07-.334.29-.668.598-1.002.92a24.65 24.65 0 0 0-.667-.616c-3.635-3.227-7.278-4.587-9.466-3.32-2.097 1.214-2.719 4.82-1.836 9.331.086.436.185.881.298 1.334a26.55 26.55 0 0 0-1.49.468c-4.261 1.486-6.982 3.814-6.982 6.23 0 2.494 2.921 4.996 7.36 6.513.35.12.713.233 1.088.34-.122.49-.228.969-.316 1.437-.842 4.433-.185 7.954 1.907 9.16 2.161 1.247 5.788-.034 9.32-3.121.279-.244.559-.503.84-.774.363.35.726.681 1.087.992 3.421 2.944 6.8 4.133 8.89 2.923 2.159-1.25 2.86-5.032 1.95-9.633a23.28 23.28 0 0 0-.242-1.076c.255-.075.505-.153.748-.234 4.615-1.529 7.617-4 7.617-6.528 0-2.424-2.81-4.768-7.157-6.264Zm-1 11.16c-.22.073-.446.143-.676.212-.51-1.613-1.197-3.328-2.039-5.1a40.307 40.307 0 0 0 1.96-5.024c.411.12.81.245 1.196.378 3.724 1.282 5.996 3.178 5.996 4.638 0 1.556-2.453 3.576-6.437 4.896Zm-1.653 3.276c.402 2.034.46 3.874.193 5.312-.24 1.292-.722 2.153-1.318 2.499-1.268.734-3.98-.22-6.906-2.738a24.597 24.597 0 0 1-1.012-.923c1.134-1.24 2.267-2.682 3.374-4.283a40.38 40.38 0 0 0 5.45-.84c.083.33.156.655.219.973Zm-16.718 7.684c-1.239.437-2.226.45-2.823.106-1.27-.732-1.797-3.559-1.077-7.35.082-.435.18-.88.294-1.337 1.648.365 3.473.627 5.424.785a41.857 41.857 0 0 0 3.455 4.269c-.257.248-.513.484-.767.706-1.562 1.365-3.126 2.334-4.506 2.82Zm-5.805-10.97c-1.963-.67-3.584-1.542-4.695-2.493-.998-.855-1.502-1.704-1.502-2.393 0-1.465 2.185-3.335 5.83-4.605.441-.154.904-.3 1.385-.436a41.208 41.208 0 0 0 1.961 5.083 41.89 41.89 0 0 0-1.986 5.156 21.347 21.347 0 0 1-.993-.311ZM75.977 74.4c-.757-3.866-.254-6.782 1.01-7.514 1.346-.779 4.324.332 7.462 3.119.2.178.402.364.604.557a41.18 41.18 0 0 0-3.429 4.243 42.036 42.036 0 0 0-5.37.835 25.293 25.293 0 0 1-.277-1.24Zm17.361 4.287a54.624 54.624 0 0 0-1.224-2.013c1.285.163 2.515.378 3.67.642a36.715 36.715 0 0 1-1.288 3.466 59.834 59.834 0 0 0-1.158-2.095Zm-7.08-6.896c.793.86 1.588 1.819 2.369 2.86a50.606 50.606 0 0 0-4.757-.002 37.922 37.922 0 0 1 2.388-2.858Zm-7.125 6.908a50.72 50.72 0 0 0-1.136 2.081 37.91 37.91 0 0 1-1.28-3.482 38.727 38.727 0 0 1 3.65-.627 50.59 50.59 0 0 0-1.234 2.028Zm1.27 10.275a36.603 36.603 0 0 1-3.709-.596c.356-1.148.793-2.34 1.305-3.554a50.787 50.787 0 0 0 2.405 4.15Zm5.903 4.879a38.616 38.616 0 0 1-2.422-2.898c.77.03 1.557.045 2.355.045.82 0 1.632-.018 2.43-.054a36.58 36.58 0 0 1-2.363 2.907Zm8.207-9.09a36.467 36.467 0 0 1 1.351 3.54 36.79 36.79 0 0 1-3.754.64 59.017 59.017 0 0 0 2.403-4.181Zm-2.657 1.273a56.358 56.358 0 0 1-1.931 3.115 51.79 51.79 0 0 1-3.686.13c-1.252 0-2.47-.04-3.644-.115a48.346 48.346 0 0 1-3.684-6.363 48.788 48.788 0 0 1 1.712-3.245 48.275 48.275 0 0 1 1.951-3.107 48.352 48.352 0 0 1 7.337.001 51.798 51.798 0 0 1 1.94 3.097c.63 1.09 1.21 2.17 1.734 3.23a51.837 51.837 0 0 1-1.73 3.257Zm3.547-19.2c1.348.777 1.872 3.911 1.025 8.022-.054.262-.115.53-.181.8a41.185 41.185 0 0 0-5.382-.85 40.379 40.379 0 0 0-3.402-4.246c.31-.298.618-.582.926-.85 2.971-2.585 5.748-3.606 7.014-2.877Zm-9.164 12.331a3.594 3.594 0 1 1 0 7.188 3.594 3.594 0 0 1 0-7.188Z" fill="#7B4AE2" fill-opacity=".5"/><g filter="url(#c)"><circle cx="309.624" cy="148.148" r="255.148" fill="#7B4AE2" fill-opacity=".2"/></g><g filter="url(#d)"><g fill-rule="evenodd" clip-rule="evenodd"><path d="M198.067 12.098c87.714-55.85 199.929-35.989 237.842.84 10.961 26.376 11.736 51.817 8.511 79.127 7.405-5.314 16.211-4.098 23.149.85 2.811 22.662 10.34 67.49-23.4 69.435-11.616 144.606-224.449 162.605-253.219.473-33.44-1.154-24.423-46.459-22.334-68.215 8.023-6.104 17.185-3.032 22.871-.301l6.58-82.209Z" fill="#D08B5B"/><path d="M185.039 73.339c.46 1.266-1.037 2.531-5.528 4.833-9.296 4.643-10.111 5.608-10.134 12.881v.352c0 9.78 1.497 12.31 7.945 13.232 6.565.921 10.712 2.416 11.864 4.257.459.806.921 4.488.921 8.285 0 8.17 2.533 19.677 5.643 25.66 8.752 17.031 31.554 25.661 59.193 22.439 13.59-1.727 21.536-4.373 30.173-10.127 12.899-8.629 18.887-19.676 19.808-37.051.692-10.587.692-10.587 4.147-11.738 4.491-1.61 15.662-1.61 20.269 0 3.569 1.266 3.569 1.266 3.569 9.437 0 9.435 2.419 20.712 5.643 27.041 8.753 17.03 31.555 25.66 59.079 22.438 13.705-1.726 21.651-4.373 30.289-10.125 12.898-8.63 18.887-20.022 20.038-37.858.806-11.737.231-11.162 12.899-12.773 6.448-.805 7.946-3.337 7.946-13.233 0-7.825-1.267-9.32-11.977-13.922l-6.45-2.763-10.019-3.105-7.37-1.611c-4.031-.806-9.213-1.497-11.402-1.612-2.303 0-8.06-2.072-13.818-4.947-9.56-4.719-10.02-4.834-21.306-4.834-12.898 0-21.997 2.647-29.368 8.4-2.187 1.726-6.794 3.913-10.019 4.718-3.34.806-9.558 2.992-13.819 4.833-11.171 4.718-16.929 4.488-31.209-1.266-6.219-2.53-12.093-4.603-12.898-4.603-.808 0-3.456-1.61-5.874-3.566-7.601-5.984-16.123-8.516-29.252-8.516-11.171 0-11.861.23-21.765 4.949-6.68 3.222-11.863 4.832-14.972 4.832-2.535.115-8.062.806-12.208 1.727l-20.038 3.336Zm92.131 14.844c13.818 4.487 18.079 10.585 18.195 26.004.115 8.171-.345 10.818-2.533 15.304-7.6 15.535-29.252 24.281-54.934 22.324-19.692-1.611-29.827-7.134-35.239-19.331-3.455-7.94-3.916-26.926-.692-32.795 2.995-5.524 8.754-9.32 18.196-11.852 7.371-1.956 11.402-2.186 29.828-1.956 15.892.345 22.803.92 27.179 2.302Zm142.802 0c13.821 4.487 18.081 10.585 18.197 26.004.115 8.171-.346 10.818-2.534 15.304-7.601 15.535-29.252 24.281-54.934 22.324-19.692-1.611-29.827-7.134-35.24-19.331-3.455-7.94-3.915-26.926-.691-32.795 2.995-5.524 8.753-9.32 18.196-11.852 7.371-1.956 11.401-2.186 29.827-1.956 15.893.345 22.803.92 27.179 2.302Z" fill="#A66F49"/><path d="m288.225-100.377-7.255 4.718-3.686-3.568c-5.758-5.638-8.522-4.602-12.898 4.718-2.649 5.754-5.988 6.444-11.746 2.647-2.304-1.611-5.183-2.992-6.334-2.992-2.534 0-4.953 3.912-5.989 9.09-.806 4.258-3.57 8.17-5.873 8.17-.806 0-3.801-1.036-6.679-2.302-4.377-1.956-5.759-2.07-8.177-1.035-2.764 1.266-2.995 1.956-2.995 9.55 0 5.524-.806 9.782-2.303 13.004-2.188 4.832-2.303 4.948-7.716 4.948-8.983 0-13.244 4.487-8.868 9.435 2.304 2.416.806 4.948-3.684 5.984-8.293 2.07-10.711 7.364-6.22 13.002 3.11 4.027 2.995 4.603-1.958 6.904-5.182 2.532-5.987 5.409-2.648 8.976 2.533 2.762 2.533 2.876 1.151 18.066-1.381 14.728-.921 55.808.692 60.065.46 1.266-1.037 2.532-5.528 4.833-9.444 4.718-10.134 5.638-10.134 13.233 0 9.78 1.497 12.312 7.946 13.233 6.564.92 10.71 2.416 11.862 4.257.46.806.921 4.488.921 8.285 0 8.17 2.534 19.677 5.643 25.66 8.753 17.031 31.555 25.66 59.195 22.439 13.589-1.726 21.535-4.373 30.172-10.126 12.899-8.63 18.887-19.677 19.809-37.052.691-10.587.691-10.587 4.146-11.737 4.491-1.611 15.662-1.611 20.268 0 3.571 1.266 3.571 1.266 3.571 9.436 0 9.436 2.418 20.712 5.643 27.041 8.752 17.03 31.554 25.66 59.078 22.439 13.705-1.727 21.651-4.373 30.289-10.126 12.898-8.63 18.887-20.022 20.038-37.858.806-11.737.231-11.161 12.899-12.773 6.449-.805 7.946-3.337 7.946-13.232 0-7.825-1.267-9.32-11.977-13.923l-6.449-2.762V58.763c-.116-19.677-2.879-33.6-7.717-38.088-1.612-1.495-5.182-3.797-8.061-5.178-4.491-2.186-5.412-2.301-6.794-.805-1.382 1.381-1.037 2.647 2.418 9.55 4.261 8.516 8.061 22.9 9.328 35.327l.806 7.594-7.37-1.61c-4.031-.806-9.213-1.496-11.402-1.611-2.303 0-8.061-2.072-13.819-4.948-9.559-4.718-10.019-4.834-21.305-4.834-12.899 0-21.997 2.647-29.367 8.4-2.188 1.727-6.795 3.913-10.019 4.719-3.34.805-9.559 2.991-13.82 4.832-11.171 4.718-16.929 4.488-31.21-1.266-6.218-2.53-12.092-4.602-12.898-4.602-.806 0-3.455-1.611-5.873-3.567-7.601-5.984-16.123-8.516-29.252-8.516-11.171 0-11.862.23-21.766 4.948-6.68 3.222-11.862 4.834-14.971 4.834-2.534.115-8.062.805-12.207 1.725-11.747 2.532-10.826 4.028-9.905-15.304.691-16.57 2.879-30.607 5.413-35.44 2.879-5.41 25.681-17.031 48.254-24.625 27.985-9.32 59.424-12.888 94.895-10.471 30.403 1.956 38.465 4.487 72.093 22.553 11.746 6.329 22.687 11.392 25.22 11.737 4.147.575 4.492.345 5.758-3.108 2.765-7.939.576-27.961-4.03-37.051-3.455-6.674-3.685-9.206-1.728-16.11 1.382-4.833 1.382-5.868-.345-8.4-1.612-2.416-2.764-2.876-7.37-2.876-2.995.115-7.601.575-10.25 1.035-4.722.92-4.837.92-4.261-2.07 2.303-11.277-.461-13.81-11.632-10.933-3.57.92-6.91 1.497-7.14 1.151-.345-.345 0-3.797.806-7.594 1.381-6.214 1.267-7.25-.345-8.976-1.728-1.61-2.764-1.61-9.444-.344-10.71 2.186-14.741 1.15-18.657-4.834-4.03-5.868-7.716-7.94-11.516-6.444-2.073.806-4.261.46-8.407-1.38-4.377-1.841-6.91-2.302-10.825-1.727-4.031.691-6.219.23-10.02-1.725-3.915-1.956-6.103-2.302-10.825-1.727-5.067.576-6.91.115-12.783-2.761-3.685-1.841-8.061-3.337-9.674-3.452-1.612 0-6.104 2.186-10.134 4.833l-.001-.001ZM277.169 83.847c13.82 4.488 18.081 10.587 18.196 26.006.116 8.169-.345 10.816-2.533 15.304-7.601 15.534-29.252 24.279-54.934 22.323-19.692-1.611-29.827-7.134-35.239-19.332-3.455-7.939-3.916-26.926-.692-32.794 2.995-5.523 8.753-9.32 18.196-11.852 7.371-1.956 11.402-2.187 29.828-1.956 15.892.345 22.802.92 27.178 2.301Zm142.803 0c13.82 4.488 18.081 10.587 18.196 26.006.116 8.169-.345 10.816-2.533 15.304-7.601 15.534-29.252 24.279-54.934 22.323-19.692-1.611-29.827-7.134-35.239-19.332-3.455-7.939-3.916-26.926-.692-32.794 2.995-5.523 8.753-9.32 18.196-11.852 7.371-1.956 11.402-2.187 29.828-1.956 15.892.345 22.802.92 27.178 2.301Z" fill="#2C1B18"/><path d="M185.039 69.003c.46 1.266-1.037 2.532-5.528 4.833-9.296 4.643-10.111 5.61-10.134 12.882v.352c0 9.78 1.497 12.31 7.945 13.232 6.565.92 10.712 2.416 11.864 4.257.459.806.921 4.488.921 8.285 0 8.17 2.533 19.678 5.643 25.66 8.752 17.031 31.554 25.66 59.193 22.439 13.59-1.727 21.536-4.373 30.173-10.126 12.899-8.63 18.887-19.676 19.808-37.052.692-10.587.692-10.587 4.147-11.737 4.491-1.61 15.662-1.61 20.269 0 3.569 1.265 3.569 1.265 3.569 9.436 0 9.435 2.419 20.712 5.643 27.042 8.753 17.029 31.555 25.658 59.079 22.437 13.705-1.726 21.651-4.373 30.289-10.125 12.898-8.63 18.887-20.022 20.038-37.858.806-11.738.231-11.161 12.899-12.773 6.448-.805 7.946-3.337 7.946-13.233 0-7.824-1.267-9.32-11.977-13.922l-6.45-2.763-10.019-3.105-7.37-1.612c-4.031-.805-9.213-1.496-11.402-1.611-2.303 0-8.06-2.071-13.818-4.947-9.56-4.718-10.02-4.834-21.306-4.834-12.898 0-21.997 2.647-29.368 8.401-2.187 1.725-6.794 3.912-10.019 4.717-3.34.806-9.558 2.992-13.819 4.833-11.171 4.718-16.929 4.488-31.209-1.266-6.219-2.53-12.093-4.603-12.898-4.603-.808 0-3.456-1.61-5.874-3.566-7.601-5.984-16.123-8.516-29.252-8.516-11.171 0-11.861.23-21.765 4.949-6.68 3.222-11.863 4.832-14.972 4.832-2.535.115-8.062.806-12.208 1.726l-20.038 3.336Zm92.131 14.845c13.818 4.488 18.079 10.585 18.195 26.005.115 8.17-.345 10.817-2.533 15.303-7.6 15.535-29.252 24.281-54.934 22.323-19.692-1.61-29.827-7.133-35.239-19.33-3.455-7.94-3.916-26.927-.692-32.795 2.995-5.523 8.754-9.32 18.196-11.852 7.371-1.956 11.402-2.186 29.828-1.956 15.892.344 22.803.92 27.179 2.302Zm142.802 0c13.821 4.488 18.081 10.585 18.197 26.005.115 8.17-.346 10.817-2.534 15.303-7.601 15.535-29.252 24.281-54.934 22.323-19.692-1.61-29.827-7.133-35.24-19.33-3.455-7.94-3.915-26.927-.691-32.795 2.995-5.523 8.753-9.32 18.196-11.852 7.371-1.956 11.401-2.186 29.827-1.956 15.893.344 22.803.92 27.179 2.302Z" fill="#090E16"/></g></g></g><defs><filter id="b" x="0" y=".984" width="171.62" height="171.62" filterUnits="userSpaceOnUse" color-interpolation-filters="sRGB"><feFlood flood-opacity="0" result="BackgroundImageFix"/><feColorMatrix in="SourceAlpha" values="0 0 0 0 0 0 0 0 0 0 0 0 0 0 0 0 0 0 127 0" result="hardAlpha"/><feOffset dy="4"/><feGaussianBlur stdDeviation="25"/><feComposite in2="hardAlpha" operator="out"/><feColorMatrix values="0 0 0 0 0 0 0 0 0 0 0 0 0 0 0 0 0 0 0.5 0"/><feBlend in2="BackgroundImageFix" result="effect1_dropShadow_0_1"/><feBlend in="SourceGraphic" in2="effect1_dropShadow_0_1" result="shape"/></filter><filter id="c" x="4.476" y="-157" width="610.296" height="610.296" filterUnits="userSpaceOnUse" color-interpolation-filters="sRGB"><feFlood flood-opacity="0" result="BackgroundImageFix"/><feBlend in="SourceGraphic" in2="BackgroundImageFix" result="shape"/><feGaussianBlur stdDeviation="25" result="effect1_foregroundBlur_0_1"/></filter><filter id="d" x="104.663" y="-105.209" width="430.095" height="602.209" filterUnits="userSpaceOnUse" color-interpolation-filters="sRGB"><feFlood flood-opacity="0" result="BackgroundImageFix"/><feBlend in="SourceGraphic" in2="BackgroundImageFix" result="shape"/><feColorMatrix in="SourceAlpha" values="0 0 0 0 0 0 0 0 0 0 0 0 0 0 0 0 0 0 127 0" result="hardAlpha"/><feOffset dy="4"/><feGaussianBlur stdDeviation="2"/><feComposite in2="hardAlpha" operator="arithmetic" k2="-1" k3="1"/><feColorMatrix values="0 0 0 0 0 0 0 0 0 0 0 0 0 0 0 0 0 0 0.25 0"/><feBlend in2="shape" result="effect1_innerShadow_0_1"/></filter><clipPath id="a"><path fill="#fff" transform="translate(-640 -310)" d="M0 0h1920v8320H0z"/></clipPath></defs></svg>