<svg width="37" height="37" fill="none" xmlns="http://www.w3.org/2000/svg"><g clip-path="url(#a)"><path fill-rule="evenodd" clip-rule="evenodd" d="M33.251.205H3.036A2.798 2.798 0 0 0 .238 3.003v30.215a2.798 2.798 0 0 0 2.798 2.797h30.215a2.798 2.798 0 0 0 2.798-2.797V3.003A2.798 2.798 0 0 0 33.25.205ZM21.293 32.112v-3.864a7.428 7.428 0 0 0 4.773 1.763c.492 0 .92-.044 1.287-.133.367-.088.673-.211.919-.368.245-.157.429-.342.55-.555.12-.214.18-.445.18-.694a1.5 1.5 0 0 0-.29-.906 3.115 3.115 0 0 0-.79-.737 8.27 8.27 0 0 0-1.191-.651c-.46-.21-.955-.423-1.486-.64-1.354-.564-2.363-1.252-3.027-2.065-.665-.813-.997-1.795-.997-2.946 0-.901.181-1.676.544-2.324a4.619 4.619 0 0 1 1.48-1.6c.624-.418 1.347-.726 2.169-.923a11.152 11.152 0 0 1 2.61-.296c.902 0 1.702.054 2.398.163.697.108 1.34.275 1.928.5v3.61a5.823 5.823 0 0 0-.949-.53 7.503 7.503 0 0 0-1.057-.38 8.056 8.056 0 0 0-2.103-.297 5.33 5.33 0 0 0-1.208.127 3.097 3.097 0 0 0-.918.356c-.25.153-.443.336-.58.55a1.3 1.3 0 0 0-.206.718c0 .29.077.55.23.779.153.23.37.447.652.652.282.205.625.406 1.027.604.403.197.858.4 1.366.61a15.11 15.11 0 0 1 1.867.923 6.639 6.639 0 0 1 1.42 1.105c.394.41.697.879.906 1.406.21.527.314 1.141.314 1.841 0 .966-.183 1.777-.55 2.433a4.462 4.462 0 0 1-1.492 1.594c-.628.406-1.36.698-2.193.875a12.69 12.69 0 0 1-2.64.266c-.951 0-1.855-.08-2.713-.242-.858-.16-1.601-.402-2.23-.724Zm-1.47-13.478h-4.97v14.164h-3.935V18.634H5.974v-3.181h13.848v3.18Z" fill="#7B4AE2" fill-opacity=".5"/></g><defs><clipPath id="a"><path fill="#fff" transform="translate(.238 .205)" d="M0 0h35.81v35.81H0z"/></clipPath></defs></svg>