<svg width="30" height="30" fill="none" xmlns="http://www.w3.org/2000/svg"><g stroke="#7B4AE2" stroke-opacity=".5" stroke-linecap="round" stroke-linejoin="round"><path d="M5.32 20.742a11.238 11.238 0 1 1 3.938 3.938v0l-3.89 1.101a.926.926 0 0 1-1.15-1.148l1.102-3.89Z"/><path d="M17.824 21.563a9.363 9.363 0 0 1-9.386-9.387 3.281 3.281 0 0 1 3.28-3.27v0a.797.797 0 0 1 .704.41l1.371 2.391a.95.95 0 0 1-.012.95l-1.101 1.84a5.625 5.625 0 0 0 2.824 2.823l1.84-1.101a.95.95 0 0 1 .949-.012l2.39 1.371a.796.796 0 0 1 .41.703 3.293 3.293 0 0 1-3.269 3.282v0Z"/></g></svg>