<svg width="64" height="64" fill="none" xmlns="http://www.w3.org/2000/svg"><path d="m49.889 18 1.38 1c2.403 1.937 3.784 4.124 4.084 6.624 2.582-.5 5.885-.125 7.326.875l1.321.813-.24.5c-.42.937-.54 1.187-.6 1.312-2.343 4.688-6.966 4.75-9.128 4.688C48.568 47.498 36.918 55.06 21.186 55.06c-7.266 0-12.79-2.313-16.514-6.875-4.924-6-4.924-13.812-4.503-16.312l.12-.5h43.415c2.282 0 4.023-.625 4.864-1.125-.901-1.375-1.201-2.937-1.261-3.812-.18-2.5.42-5.125 1.62-7L49.89 18Zm-38.311 5.874v6.25H4.972v-6.25h6.606Zm7.806 0v6.25H12.78v-6.25h6.605Zm7.806 0v6.25h-6.605v-6.25h6.605Zm7.807 0v6.25H28.39v-6.25h6.606Zm7.806 0v6.25h-6.605v-6.25h6.605Zm-7.806-7.5v6.25H28.39v-6.25h6.606Zm-7.807 0v6.25h-6.605v-6.25h6.605Zm-7.806 0v6.25H12.78v-6.25h6.605Zm15.613-7.499v6.25H28.39v-6.25h6.606Z" fill="#7B4AE2" fill-opacity=".5"/></svg>