<svg width="29" height="64" fill="none" xmlns="http://www.w3.org/2000/svg"><g fill-rule="evenodd" clip-rule="evenodd" fill="#7B4AE2" fill-opacity=".5"><path d="M13.027 56.015c1.167 2.738 1.055 7.403 1.055 7.403l1.704.582s-.333-4.571.166-6.733c.14-.672.477-1.26.878-1.75-.084.059-.13.088-.13.088-1.66-.777-2.151-4.383-2.231-7.762-.331 4.182-.805 7.235-1.26 8.302 0 0-.063-.043-.182-.13Z"/><path d="m14.084.268-.002-.102s.915 2.328 1.87 3.657c.873 1.87 8.81 6.733 12.177 21.57C31.619 45.796 16.7 55.604 16.7 55.604c-1.66-.777-2.151-4.383-2.231-7.762-.331 4.182-.805 7.235-1.26 8.302 0 0-14.005-9.558-13.173-26.39.789-16.83 10.68-25.1 12.591-26.597C13.874 1.828 13.916 1.33 14 0c.03.063.058.153.085.268Z"/></g></svg>