<svg width="66" height="64" fill="none" xmlns="http://www.w3.org/2000/svg"><g fill="#7B4AE2" fill-opacity=".5"><path d="M51.452 50.741c2.306-.975 5.055-1.33 8.602-1.242-.1-.663-1.367-1.452-2.296-2.03a12.194 12.194 0 0 1-.763-.497c-1.42-1.02-2.927-2.084-4.435-3.015-.485-.297-1.185-.544-1.858-.783a16.57 16.57 0 0 1-1.201-.459c-.355-.144-.838-.289-1.36-.445-1.24-.37-2.695-.806-3.163-1.461-1.206-1.568-2.048-3.463-2.888-5.356l-.26-.586c-.44-1.006-.93-2.031-1.422-3.062a95.415 95.415 0 0 1-1.594-3.457 18.222 18.222 0 0 1-.537-1.343c-.205-.556-.406-1.1-.705-1.672-3.237-6.252-8.026-11.485-13.835-15.166-1.907-1.197-4.035-2.306-6.385-3.06-.718-.215-1.513-.25-2.316-.284-.685-.03-1.376-.06-2.03-.203h-.931c-.538-.15-1.015-.58-1.46-.982a7.45 7.45 0 0 0-.624-.526c-1.375-.93-2.75-1.552-4.39-2.217-.577-.266-2.217-.887-2.794-.399-.355.089-.532.222-.62.577-.355.532-.045 1.33.177 1.817.44.938.995 1.624 1.565 2.327.292.361.588.726.874 1.132.136.193.279.39.423.59.655.906 1.358 1.88 1.794 2.825.615 1.325 1.053 2.725 1.49 4.12.382 1.22.763 2.437 1.26 3.596.398.93 1.02 1.995 1.596 2.837.18.247.416.47.655.694.404.382.818.772.985 1.302.431.719-.36 2.777-.841 4.027-.113.293-.208.541-.267.718-1.153 3.636-.932 8.69.399 11.84l.142.336c.484 1.157 1.005 2.4 2.296 2.723.04-.04.045-.053.053-.06.01-.007.028-.005.125-.029.065-.51.12-1.015.175-1.514.206-1.888.4-3.673 1.066-5.181.318-.78.841-1.408 1.352-2.02.274-.33.544-.655.777-.996.281.169.384.552.49.945.06.227.122.457.22.651l.126.302c.54 1.291 1.122 2.68 1.78 3.955 1.463 2.838 3.104 5.587 4.967 8.07.62.888 1.508 1.863 2.306 2.661.121.106.247.197.372.286.24.172.472.339.648.601h.088v.133c-.842-.308-1.488-.972-2.12-1.62-.365-.377-.726-.747-1.117-1.04-1.995-1.508-4.39-3.77-5.765-5.942-.433-.933-.89-1.84-1.355-2.76l-.463-.92v-.09c-.17.227-.195.453-.225.724a3.751 3.751 0 0 1-.085.518c-.164.632-.246 1.29-.325 1.925-.197 1.593-.377 3.047-1.803 3.618-2.262.931-3.947-1.508-4.656-2.616-2.262-3.68-2.883-9.889-1.287-14.9.124-.385.21-.798.295-1.209.161-.771.32-1.538.726-2.116-.09-.533-.396-.81-.695-1.079a2.846 2.846 0 0 1-.414-.429c-.62-.842-1.153-1.818-1.64-2.749-.71-1.384-1.264-2.974-1.802-4.515-.168-.483-.335-.961-.505-1.427a9.863 9.863 0 0 1-.347-1.162c-.102-.404-.203-.802-.362-1.188-.42-.909-1.113-1.817-1.758-2.66-.173-.227-.344-.45-.504-.666a18.205 18.205 0 0 0-.656-.855C1.167 7.032-.715 4.669.28 2.274c1.862-4.567 8.381-1.108 10.908.488.253.163.52.398.796.642.402.355.823.726 1.244.91.554.022 1.109.056 1.663.089.554.033 1.109.066 1.663.089l.541.125c1.88.436 3.637.843 5.135 1.693 7.627 4.478 12.593 9.046 17.16 16.584.62 1.014 1.044 2.083 1.474 3.17.247.625.497 1.255.788 1.885 1.108 2.572 2.35 5.276 3.636 7.716.162.323.313.657.464.991.389.858.78 1.721 1.354 2.423.207.295.669.453 1.111.604.223.075.44.15.618.239.574.295 1.195.563 1.821.834.972.42 1.955.844 2.791 1.383 2.572 1.596 5.055 3.503 7.317 5.454.457.41.836.91 1.214 1.409.32.421.638.842 1.003 1.207v.4c-.71.221-1.42.443-2.129.62-.771.199-1.5.276-2.222.354-.73.078-1.454.155-2.212.356l-.293.084c-.873.252-1.891.546-2.767.625l.09.089c.427 1.216 2.244 2.262 3.733 3.12.52.298.999.574 1.366.826 1.73 1.242 3.325 2.75 4.611 4.479.221.221.443.431.664.641.222.211.444.423.667.645.15.215.248.46.345.702.103.258.204.511.364.717V64c-.388-.139-.655-.416-.92-.69a3.757 3.757 0 0 0-.499-.463 40.052 40.052 0 0 1-1.253-.903c-.558-.413-1.115-.826-1.674-1.181-.857-.542-1.785-.969-2.716-1.398-.898-.413-1.8-.829-2.65-1.351-.974-.621-1.906-1.33-2.837-2.04-.843-.62-1.773-1.818-2.306-2.705a3.356 3.356 0 0 1-.3-.657c-.107-.288-.208-.56-.41-.762.067-.63.679-.789 1.261-.94a4.76 4.76 0 0 0 .558-.169Z"/><path d="M13.006 11.187a7.018 7.018 0 0 1 1.818-.222c.14.14.316.26.493.381.27.185.544.371.704.64.099.137.162.275.226.413.08.173.159.345.306.518 0 1.064-.31 1.773-.93 2.217l-.09.089c-.177-.355-.343-.709-.509-1.063-.166-.356-.333-.71-.51-1.066a7.91 7.91 0 0 0-.573-.686c-.314-.348-.63-.699-.846-1.132h-.089v-.089Z"/></g></svg>