<svg width="64" height="64" fill="none" xmlns="http://www.w3.org/2000/svg"><path fill-rule="evenodd" clip-rule="evenodd" d="M32.057 63.134c-.86 0-1.662-.23-2.407-.63l-7.623-4.528c-1.146-.63-.573-.86-.23-.974 1.548-.516 1.835-.63 3.44-1.548.172-.114.4-.057.573.057l5.846 3.497c.229.114.515.114.687 0l22.868-13.24c.229-.114.344-.343.344-.63v-26.42c0-.287-.115-.517-.344-.631L32.343 4.905c-.229-.115-.516-.115-.688 0L8.788 18.087c-.23.114-.344.401-.344.63v26.421c0 .23.115.516.344.63l6.247 3.611c3.381 1.72 5.502-.286 5.502-2.292V21.01c0-.344.287-.688.688-.688h2.923c.343 0 .687.287.687.688v26.077c0 4.527-2.464 7.164-6.762 7.164-1.319 0-2.35 0-5.273-1.433l-6.018-3.439a4.837 4.837 0 0 1-2.407-4.184v-26.42c0-1.72.917-3.324 2.407-4.184L29.65 1.35c1.432-.802 3.381-.802 4.814 0l22.867 13.24a4.837 4.837 0 0 1 2.407 4.184v26.42c0 1.72-.917 3.325-2.407 4.184L34.464 62.62a5.866 5.866 0 0 1-2.407.515Zm7.049-18.168c-10.03 0-12.093-4.585-12.093-8.482 0-.344.287-.688.688-.688h2.98c.344 0 .63.23.63.573.46 3.038 1.777 4.528 7.852 4.528 4.815 0 6.878-1.089 6.878-3.668 0-1.49-.573-2.579-8.081-3.324-6.247-.63-10.144-2.006-10.144-6.992 0-4.642 3.897-7.393 10.43-7.393 7.336 0 10.947 2.521 11.405 8.023a.924.924 0 0 1-.172.516c-.114.115-.286.23-.458.23h-2.98a.672.672 0 0 1-.63-.516c-.688-3.153-2.465-4.184-7.165-4.184-5.272 0-5.903 1.834-5.903 3.21 0 1.661.745 2.177 7.852 3.094 7.05.917 10.373 2.235 10.373 7.164-.057 5.044-4.183 7.91-11.462 7.91Z" fill="#7B4AE2" fill-opacity=".5"/></svg>