<svg width="62" height="64" fill="none" xmlns="http://www.w3.org/2000/svg"><path fill-rule="evenodd" clip-rule="evenodd" d="M25.816 19.026c-.688-.096-1.31-.007-1.625.232a.594.594 0 0 0-.247.396c-.04.284.159.597.28.759.346.457.85.772 1.35.841.072.01.144.015.216.015.832 0 1.59-.648 1.656-1.127.083-.599-.787-.998-1.63-1.116Zm22.778.019c-.066-.47-.902-.604-1.695-.494-.792.11-1.56.468-1.496.94.051.365.712.99 1.495.99.066 0 .133-.004.2-.013.522-.073.906-.404 1.088-.596.277-.291.437-.616.408-.827Z" fill="#7B4AE2" fill-opacity=".5"/><mask id="a" fill="#fff"><path fill-rule="evenodd" clip-rule="evenodd" d="M61.664 39.166c-.291-.88-1.228-1.163-2.783-.841-4.62.953-6.274.292-6.817-.108 3.59-5.47 6.544-12.081 8.137-18.25.755-2.923 1.172-5.636 1.206-7.848.038-2.429-.375-4.212-1.228-5.302C56.74 2.423 51.694.067 45.585.002c-4.2-.048-7.748 1.027-8.436 1.33a21.028 21.028 0 0 0-4.746-.61c-3.153-.051-5.878.704-8.134 2.242a36.329 36.329 0 0 0-6.61-1.733c-5.356-.862-9.61-.21-12.647 1.942C1.388 5.74-.285 10.33.039 16.812c.11 2.18 1.352 8.89 3.313 15.316 2.582 8.457 5.388 13.245 8.34 14.23.346.115.745.196 1.184.196 1.077 0 2.398-.486 3.772-2.138a135.927 135.927 0 0 1 5.198-5.882 8.371 8.371 0 0 0 3.74 1.006l.008.102c-.261.31-.476.583-.659.815-.903 1.147-1.091 1.386-4 1.985-.827.17-3.025.623-3.057 2.164-.035 1.683 2.597 2.39 2.897 2.464a12.4 12.4 0 0 0 3.013.391c2.335 0 4.39-.767 6.033-2.253-.05 6 .2 11.912.92 13.714.59 1.474 2.031 5.078 6.584 5.078.668 0 1.404-.078 2.213-.251C44.29 62.73 46.353 60.63 47.15 56c.427-2.474 1.16-8.383 1.505-11.553.728.227 1.664.331 2.677.33 2.112 0 4.55-.448 6.078-1.157 1.716-.797 4.814-2.754 4.253-4.454ZM50.348 17.748c-.016.936-.145 1.785-.281 2.672-.147.954-.299 1.94-.337 3.137-.038 1.165.108 2.376.248 3.547.285 2.365.576 4.8-.553 7.203a9.363 9.363 0 0 1-.5-1.028c-.14-.34-.445-.887-.867-1.644-1.642-2.944-5.487-9.838-3.519-12.652.587-.837 2.074-1.698 5.809-1.235ZM45.82 1.896c5.474.121 9.803 2.169 12.869 6.086 2.35 3.004-.238 16.676-7.733 28.47l-.227-.286-.095-.12c1.936-3.198 1.558-6.362 1.22-9.168-.138-1.151-.269-2.24-.235-3.26.034-1.083.177-2.012.316-2.91.17-1.107.343-2.252.295-3.601.036-.142.05-.31.032-.508-.122-1.294-1.6-5.168-4.612-8.674-1.648-1.918-4.05-4.064-7.331-5.512a24.718 24.718 0 0 1 5.501-.517ZM15.194 43.208c-1.514 1.82-2.56 1.47-2.903 1.356-2.24-.747-4.839-5.48-7.13-12.988-1.983-6.495-3.142-13.027-3.233-14.859-.29-5.792 1.114-9.83 4.173-11.999 4.979-3.53 13.164-1.417 16.452-.345-.047.046-.096.09-.143.137-5.397 5.45-5.269 14.763-5.256 15.332 0 .22.018.53.044.958.093 1.567.265 4.482-.196 7.783-.43 3.068.516 6.07 2.594 8.238.215.224.44.435.671.633-.925.99-2.934 3.18-5.073 5.754Zm5.767-7.696c-1.675-1.746-2.435-4.177-2.087-6.667.488-3.488.308-6.525.211-8.156l-.033-.587c.789-.699 4.442-2.657 7.048-2.06 1.19.273 1.913 1.082 2.215 2.475 1.559 7.21.206 10.215-.88 12.63-.225.498-.436.968-.617 1.455l-.14.376c-.355.95-.685 1.834-.89 2.674-1.779-.005-3.51-.766-4.827-2.14Zm.273 9.724a4.18 4.18 0 0 1-1.261-.542c.229-.108.636-.255 1.343-.4 3.422-.705 3.95-1.202 5.105-2.667.264-.336.564-.717.98-1.18v-.001c.619-.693.901-.576 1.415-.363.416.172.82.694.985 1.267.078.271.165.785-.12 1.185-2.412 3.376-5.924 3.332-8.447 2.701ZM39.141 61.9c-4.185.897-5.668-1.239-6.644-3.68-.63-1.577-.94-8.685-.72-16.535a.941.941 0 0 0-.042-.3 3.956 3.956 0 0 0-.116-.555c-.328-1.142-1.124-2.097-2.08-2.494-.38-.157-1.076-.445-1.914-.231.179-.736.489-1.567.824-2.467l.141-.378c.159-.427.358-.869.568-1.337 1.138-2.527 2.695-5.987 1.005-13.806-.633-2.928-2.748-4.358-5.953-4.026-1.922.2-3.68.975-4.557 1.42-.189.095-.361.187-.522.277.244-2.95 1.17-8.464 4.628-11.953 2.178-2.196 5.078-3.281 8.612-3.223C39.334 2.726 43.8 6.3 46.32 9.277c2.172 2.567 3.348 5.151 3.817 6.545-3.529-.359-5.929.338-7.146 2.078-2.647 3.783 1.448 11.127 3.416 14.656.361.647.673 1.206.77 1.444.642 1.553 1.471 2.59 2.077 3.347.186.232.366.457.503.653-1.069.309-2.989 1.02-2.814 4.579-.14 1.786-1.144 10.146-1.654 13.1-.673 3.902-2.109 5.356-6.146 6.221Zm17.473-19.995c-1.093.507-2.922.888-4.66.97-1.918.09-2.895-.216-3.125-.403-.108-2.218.718-2.45 1.591-2.695.137-.038.271-.076.4-.121.081.065.17.13.265.194 1.543 1.018 4.294 1.128 8.178.326l.043-.009c-.524.49-1.42 1.148-2.692 1.738Z"/></mask><path d="m58.88 38.325 1.617 7.834h.002l-1.618-7.834Zm-6.816-.108-6.688-4.39-4.16 6.338 6.105 4.495 4.743-6.443Zm8.137-18.25-7.745-2.002 7.745 2.002Zm1.206-7.848-7.999-.124 8 .124ZM60.18 6.817l6.3-4.93-6.3 4.93ZM45.585.002 45.495 8h.005l.085-8Zm-8.436 1.33-1.93 7.763 2.649.659 2.499-1.098-3.218-7.325Zm-4.746-.61.13-8h-.001l-.13 8Zm-8.134 2.242-2.79 7.498 3.878 1.443 3.418-2.331-4.506-6.61Zm-6.61-1.733 1.272-7.898-1.273 7.898ZM5.011 3.173.387-3.355l4.625 6.528ZM.039 16.812l7.99-.4-7.99.4Zm3.313 15.316-7.651 2.336 7.651-2.336Zm8.34 14.23 2.532-7.59-2.531 7.59Zm4.956-1.942 6.15 5.117.002-.003-6.152-5.114Zm5.198-5.882 3.784-7.048-5.41-2.904-4.204 4.474 5.83 5.478Zm3.74 1.006 7.982-.532-.485-7.27-7.284-.195-.213 7.997Zm.008.102 6.117 5.157 2.148-2.548-.296-3.32-7.969.711Zm-.659.815 6.285 4.95-6.285-4.95Zm-4 1.985-1.614-7.836h-.002l1.616 7.836Zm-3.057 2.164 7.998.166-7.998-.166Zm2.897 2.464 1.943-7.76-.004-.001-1.939 7.761Zm3.013.391v8-8Zm6.033-2.253 8 .068.154-18.225-13.52 12.223 5.366 5.934Zm.92 13.714-7.428 2.97v.001l7.428-2.971ZM37.325 64v-8 8Zm2.213-.251 1.676 7.822h.001l-1.677-7.822ZM47.15 56l-7.883-1.36L47.15 56Zm1.505-11.553 2.382-7.637-9.284-2.895-1.051 9.667 7.953.865Zm2.677.33v-8h-.001l.001 8Zm6.078-1.157 3.368 7.256h.001l-3.37-7.256Zm-7.344-23.2 7.907 1.218-7.907-1.218Zm-.337 3.137 7.996.259v-.004l-7.996-.255Zm.248 3.547 7.943-.955-7.943.954Zm-.553 7.203-6.971 3.925 7.612 13.52 6.6-14.042-7.241-3.403Zm-.5-1.028-7.396 3.05 7.396-3.05Zm-.867-1.644 6.987-3.896-6.987 3.896Zm-3.519-12.652-6.554-4.586 6.554 4.586ZM58.69 7.982l6.3-4.93-6.3 4.93Zm-7.732 28.47L44.67 41.4l6.983 8.872 6.055-9.53-6.752-4.29Zm-.227-.286-6.255 4.988.005.006.005.006 6.245-5Zm-.095-.12-6.844-4.143L40.9 36.68l3.486 4.362 6.25-4.995Zm1.22-9.168 7.944-.954v-.001l-7.943.955Zm-.235-3.26 7.995.26v-.006l-7.995-.255Zm.316-2.91 7.906 1.218-7.906-1.218Zm.295-3.601-7.758-1.954-.277 1.101.04 1.136 7.995-.283Zm.032-.508 7.965-.748v-.002l-7.965.75ZM47.65 7.925l6.068-5.213-6.068 5.213Zm-7.33-5.512L38.697-5.42 14.236-.351 37.09 9.733l3.23-7.32ZM12.29 44.564l-2.53 7.59h.002l2.529-7.59ZM5.16 31.576l7.652-2.335-7.651 2.335ZM1.929 16.717l-7.99.4 7.99-.4ZM6.1 4.718 1.474-1.807 6.1 4.718Zm16.452-.345 5.611 5.702 9.381-9.23-12.513-4.079-2.479 7.607Zm-.143.137-5.684-5.63v.002L22.41 4.51Zm-5.256 15.332 8 .017v-.101l-.002-.101-7.998.185Zm.044.958-7.986.473 7.986-.473Zm-.196 7.783 7.923 1.108-7.923-1.108Zm2.594 8.238-5.776 5.535.001.001 5.775-5.536Zm.671.633 5.847 5.46 5.706-6.11-6.355-5.431-5.198 6.081Zm-1.393-8.61 7.923 1.108-7.923-1.107Zm.211-8.155-7.986.472 7.986-.473Zm-.033-.587-5.306-5.986-2.858 2.533.173 3.814 7.991-.36Zm7.048-2.06-1.787 7.798 1.787-7.797Zm2.215 2.475 7.819-1.69v-.001l-7.82 1.691Zm-.88 12.63 7.294 3.285v-.002l-7.295-3.283Zm-.617 1.455 7.497 2.791.002-.005-7.5-2.786Zm-.14.376 7.496 2.795.001-.004-7.497-2.791Zm-.89 2.674-.024 8 6.306.02 1.492-6.127-7.773-1.893Zm-5.815 7.042-3.408-7.238-12.662 5.962 11.562 7.885 4.508-6.61Zm1.343-.4-1.613-7.836 1.613 7.836Zm5.105-2.667-6.284-4.952-.001.002 6.285 4.95Zm.98-1.18 5.96 5.336.715-.8.48-.959-7.156-3.578Zm0-.001 5.662 5.652.156-.157.148-.166-5.966-5.33Zm1.415-.363-3.065 7.39.005.002 3.06-7.392Zm.985 1.267-7.691 2.203v.002l7.69-2.205Zm-.12 1.185 6.51 4.65-6.51-4.65Zm2.816 15.685-7.428 2.97 7.428-2.97Zm-.72-16.535 7.996.224v-.003l-7.997-.221Zm-.042-.3-7.926 1.083.087.633.185.61 7.654-2.326Zm-.116-.555-7.691 2.202 7.69-2.202Zm-2.08-2.494 3.063-7.39-3.063 7.39Zm-1.914-.231-7.774-1.888-3.141 12.937 12.898-3.299-1.983-7.75Zm.824-2.467 7.496 2.797.002-.006-7.498-2.79Zm.141-.378 7.498 2.79v-.002L28.59 35.26Zm.568-1.337-7.295-3.283 7.295 3.283Zm1.005-13.806 7.82-1.69-7.82 1.69Zm-5.953-4.026.823 7.958-.823-7.958Zm-4.557 1.42 3.617 7.135-3.617-7.136Zm-.522.277-7.973-.661-1.241 14.969 13.114-7.323-3.9-6.985Zm4.628-11.953 5.681 5.633-5.68-5.633Zm8.612-3.223-.132 8h.001l.131-8Zm13.95 6.665 6.107-5.167-6.107 5.167Zm3.817 6.545-.81 7.96 12.353 1.255-3.961-11.767-7.582 2.552ZM42.99 17.9l-6.555-4.586 6.555 4.585Zm3.416 14.656-6.987 3.897 6.987-3.897Zm.77 1.444-7.395 3.05v.001L47.178 34Zm2.077 3.347-6.246 4.998v.002l6.246-5Zm.503.653 2.217 7.687 10.737-3.096-6.392-9.166L49.756 38Zm-2.814 4.579 7.975.63.04-.51-.024-.513-7.99.393Zm-1.654 13.1-7.883-1.36 7.883 1.36Zm6.667-12.805.374 7.992h.001l-.375-7.992Zm-3.126-.402-7.99.39.173 3.557 2.76 2.252 5.057-6.199Zm1.591-2.695 2.163 7.702.007-.002-2.17-7.7Zm.4-.121 5.048-6.207-3.468-2.82-4.22 1.476 2.64 7.55Zm.265.194 4.407-6.677-4.407 6.677Zm8.178.326 1.617 7.835.024-.005.024-.005-1.665-7.825Zm.043-.009 5.464 5.844 20.695-19.353-27.76 5.671 1.6 7.838Zm9.953-3.513c-1.012-3.06-3.393-5.169-6.197-6.017-2.304-.696-4.449-.426-5.8-.147l3.237 15.669c.205-.042-.694.209-2.068-.207a6.583 6.583 0 0 1-2.614-1.532 6.696 6.696 0 0 1-1.749-2.742l15.191-5.024ZM57.264 30.49c-.889.183-1.531.267-1.967.302a6.24 6.24 0 0 1-.48.023c-.106 0-.154-.004-.152-.004 0 0 .233.02.619.152.395.134.935.38 1.522.812L47.321 44.66c3.379 2.487 7.964 2.575 13.177 1.5l-3.234-15.67Zm1.487 12.117c4.056-6.177 7.376-13.593 9.196-20.64l-15.491-4.001c-1.367 5.29-3.954 11.099-7.08 15.861l13.375 8.78Zm9.196-20.64c.86-3.33 1.413-6.698 1.46-9.725l-15.999-.246c-.021 1.396-.303 3.455-.952 5.97l15.491 4.002Zm1.46-9.724c.046-3.018-.367-7.084-2.928-10.357l-12.6 9.861a3.602 3.602 0 0 1-.463-.755c-.073-.166-.09-.251-.082-.22.006.03.03.143.049.356.018.212.031.498.025.867l15.998.248ZM66.478 1.886C61.387-4.62 53.946-7.91 45.669-7.998l-.169 16c3.942.04 6.593 1.464 8.379 3.745l12.6-9.86ZM45.675-7.998c-5.301-.06-9.98 1.23-11.743 2.005l6.435 14.649c-.314.138-.363.13.014.021a19.011 19.011 0 0 1 5.115-.676l.179-15.999ZM39.08-6.432a29.026 29.026 0 0 0-6.546-.845L32.27 8.72c1.107.018 2.083.159 2.948.374L39.08-6.432Zm-6.548-.845c-4.552-.074-8.954 1.03-12.77 3.631l9.013 13.22c.697-.475 1.745-.882 3.498-.853l.259-15.998Zm-5.474 2.743a44.308 44.308 0 0 0-8.127-2.133L16.386 9.129a28.353 28.353 0 0 1 5.093 1.333l5.58-14.996ZM18.93-6.667C12.45-7.711 5.781-7.177.387-3.355l9.25 13.056c.678-.481 2.52-1.253 6.75-.572L18.93-6.667ZM.387-3.355c-6.778 4.803-8.73 12.713-8.338 20.566l15.98-.799c-.255-5.112 1.139-6.379 1.607-6.711L.386-3.355Zm-8.338 20.566c.157 3.128 1.607 10.555 3.652 17.253l15.303-4.671a98.307 98.307 0 0 1-2.168-8.535 70.464 70.464 0 0 1-.605-3.276c-.07-.443-.12-.81-.155-1.096a12.596 12.596 0 0 1-.046-.474l-15.98.8Zm3.652 17.253c1.378 4.515 2.941 8.489 4.78 11.626 1.687 2.878 4.394 6.427 8.68 7.857l5.063-15.178c1.333.444 1.161 1.107.061-.77-.947-1.616-2.078-4.265-3.281-8.207L-4.3 34.464ZM9.16 53.946a11.73 11.73 0 0 0 3.715.608v-16a4.27 4.27 0 0 1 1.348.215L9.161 53.946Zm3.715.608c3.874 0 7.319-1.893 9.922-5.022L10.498 39.3c-.13.156.007-.06.49-.308a4.174 4.174 0 0 1 1.888-.438v16ZM22.8 49.53a127.873 127.873 0 0 1 4.876-5.518l-11.66-10.956a143.58 143.58 0 0 0-5.52 6.247L22.8 49.53Zm-4.738-3.947a16.372 16.372 0 0 0 7.31 1.954l.427-15.994a.397.397 0 0 1-.17-.057l-7.567 14.097Zm-.459-5.51a10.353 10.353 0 0 0 .023.283v-.002l15.937-1.423a5.337 5.337 0 0 0-.006-.057l.004.043.007.091-15.965 1.064Zm1.875-5.587c-.355.42-.64.784-.827 1.02l12.569 9.901c.179-.227.322-.408.49-.608L19.479 34.486Zm-.827 1.02c-.128.163-.166.21-.189.238-.014.017.054-.066.177-.191a5.417 5.417 0 0 1 1.297-.964c.431-.23.702-.29.549-.247-.156.044-.485.124-1.164.264l3.227 15.671c1.279-.263 3.19-.654 4.89-1.556 2.225-1.18 3.447-2.889 3.782-3.313l-12.57-9.901Zm.668-.9c-.322.067-2.061.388-3.777 1.243-1.556.775-5.552 3.29-5.662 8.59l15.996.333a6.504 6.504 0 0 1-1.54 4.064c-.712.836-1.421 1.215-1.662 1.335-.402.2-.628.21-.123.106l-3.232-15.67Zm-9.44 9.833c-.115 5.534 4.148 8.257 5.342 8.942a14.668 14.668 0 0 0 3.616 1.451l3.877-15.523c.094.023.203.04.467.192.143.083.712.418 1.307 1.151a6.367 6.367 0 0 1 1.388 4.12L9.88 44.44Zm8.954 10.392a20.38 20.38 0 0 0 4.955.63v-16a4.46 4.46 0 0 1-1.07-.151l-3.885 15.52Zm4.955.63c4.2 0 8.2-1.427 11.398-4.319l-10.73-11.868a.56.56 0 0 1-.19.123c-.053.02-.196.064-.479.064l.001 16Zm-1.967-10.32c-.026 3.109.024 6.28.185 8.975.08 1.341.193 2.659.355 3.837.138 1.007.389 2.53.952 3.94l14.856-5.942c.203.508.152.617.043-.178a35.616 35.616 0 0 1-.234-2.61c-.132-2.212-.182-4.996-.157-7.887l-16-.135Zm1.492 16.752c.292.729 1.25 3.27 3.36 5.551C29.039 70.004 32.605 72 37.326 72l-.001-16c-.038 0 .001-.003.1.018a1.998 1.998 0 0 1 .996.566c.09.096.087.122.025.004a6.59 6.59 0 0 1-.277-.638l-14.856 5.943ZM37.325 72c1.29 0 2.588-.15 3.89-.429L37.86 55.927a2.72 2.72 0 0 1-.535.073v16Zm3.89-.429c3.165-.678 6.58-1.947 9.319-4.736 2.77-2.82 3.948-6.271 4.5-9.476l-15.767-2.718c-.245 1.425-.498 1.339-.147.981.32-.326.327-.035-1.26.305l3.355 15.644Zm13.82-14.21c.473-2.742 1.228-8.867 1.574-12.049l-15.906-1.73c-.343 3.158-1.054 8.85-1.435 11.057l15.767 2.722Zm-8.76-5.277c1.788.558 3.612.694 5.06.694l-.003-16c-.241 0-.405-.013-.49-.023-.039-.005-.044-.007-.017-.002a2.2 2.2 0 0 1 .213.057l-4.764 15.274Zm5.058.694c2.916 0 6.578-.571 9.446-1.902l-6.737-14.513c.026-.011-.279.117-.935.24a9.98 9.98 0 0 1-1.774.175v16Zm9.447-1.902c1.288-.599 3.203-1.662 4.87-3.115.816-.713 1.972-1.86 2.844-3.45.912-1.666 1.823-4.458.766-7.656l-15.192 5.022c-.776-2.349-.042-4.258.394-5.054.394-.72.773-1.01.672-.921-.172.15-.664.463-1.093.662l6.739 14.512ZM42.349 17.613c-.005.317-.046.658-.189 1.59l15.814 2.434c.13-.841.347-2.2.373-3.754l-15.998-.27Zm-.189 1.59c-.145.942-.37 2.363-.426 4.098l15.992.511c.02-.658.1-1.21.248-2.174L42.16 19.203Zm-.426 4.094c-.061 1.88.175 3.708.301 4.761l15.886-1.91c-.155-1.288-.21-1.883-.195-2.332l-15.992-.519Zm.301 4.761c.154 1.279.214 1.896.2 2.416a2.176 2.176 0 0 1-.036.378c-.009.043-.014.052-.014.052l14.48 6.806c2.248-4.782 1.504-9.502 1.256-11.561l-15.886 1.909Zm14.361 2.324a1.372 1.372 0 0 1-.076-.153l-14.791 6.1c.291.706.607 1.338.925 1.903l13.942-7.85Zm-.076-.153c-.369-.895-.992-1.981-1.275-2.49L41.07 35.532a63.452 63.452 0 0 1 .549 1.002c.008.017-.032-.062-.091-.205l14.791-6.1Zm-1.275-2.49c-.855-1.533-1.934-3.495-2.614-5.299-.343-.91-.432-1.396-.443-1.507-.024-.242.199 1.075-.893 2.636l-13.11-9.171c-2.077 2.967-2.111 6.201-1.917 8.135.208 2.065.813 4.015 1.39 5.547 1.162 3.083 2.826 6.04 3.613 7.452l13.974-7.793Zm-3.95-4.17a5.57 5.57 0 0 1-1.416 1.41 4.281 4.281 0 0 1-1.207.588c-.466.134-.325-.03.89.12L51.334 9.81c-4.77-.592-10.19.075-13.348 4.588l13.11 9.173Zm-5.45-13.675c3.35.074 5.318 1.196 6.745 3.018l12.6-9.86C60.285-2.96 53.595-5.935 45.998-6.103l-.353 15.996Zm6.744 3.018a5.21 5.21 0 0 1-.733-1.247 2.868 2.868 0 0 1-.155-.482c-.01-.046.036.172.027.733-.017 1.118-.233 2.858-.783 5.102-1.093 4.464-3.283 10.017-6.54 15.143l13.504 8.582c4.237-6.669 7.09-13.848 8.577-19.919.74-3.024 1.2-6.003 1.24-8.661.02-1.328-.06-2.763-.348-4.178-.27-1.325-.837-3.206-2.188-4.933l-12.6 9.86Zm4.854 18.592a51.811 51.811 0 0 0-.268-.338l-12.49 10 .186.234 12.572-9.896Zm-.26-.327-.099-.125-12.498 9.99.09.112 12.508-9.977Zm.495 9.014c3.526-5.825 2.637-11.635 2.32-14.267l-15.885 1.908c.358 2.98.225 3.498-.122 4.071l13.687 8.288Zm2.32-14.268c-.155-1.294-.192-1.748-.183-2.045l-15.991-.52c-.057 1.745.167 3.466.289 4.475l15.885-1.91Zm-.182-2.051c.017-.538.084-1.022.226-1.946L44.03 19.49c-.135.872-.354 2.245-.405 3.873l15.992.509Zm.227-1.947c.168-1.093.46-2.914.383-5.101l-15.99.566c.018.512-.035.98-.207 2.101l15.813 2.434Zm.146-2.864a9.488 9.488 0 0 0 .239-3.21l-15.93 1.497a6.518 6.518 0 0 1 .175-2.195L59.99 19.06Zm.238-3.212c-.196-2.088-1.098-4.413-1.99-6.25a32.396 32.396 0 0 0-4.518-6.887L41.582 13.138a16.398 16.398 0 0 1 2.261 3.446c.25.515.408.919.492 1.168.122.361.017.172-.037-.402l15.93-1.501ZM53.72 2.71C51.51.137 48.188-2.86 43.55-4.907l-6.46 14.64c1.924.848 3.408 2.143 4.493 3.405L53.719 2.711Zm-11.776 7.536a16.719 16.719 0 0 1 3.7-.353L46-6.102a32.697 32.697 0 0 0-7.303.682l3.247 15.667Zm-32.9 27.845c-.043.052.664-.82 2.282-1.232a6.308 6.308 0 0 1 2.303-.147c.686.082 1.205.266 1.192.261l-5.058 15.18c.625.208 2.77.91 5.52.209 2.605-.665 4.592-2.272 6.062-4.04L9.043 38.092Zm5.78-1.117c1.299.434 1.832 1.122 1.7.974-.061-.069-.335-.411-.765-1.194-.856-1.558-1.89-4.053-2.946-7.514L-2.49 33.91c1.235 4.046 2.647 7.672 4.223 10.544.787 1.433 1.725 2.883 2.853 4.147 1.056 1.184 2.755 2.744 5.174 3.551l5.063-15.178Zm-2.01-7.734a95.619 95.619 0 0 1-2.141-8.452 69.698 69.698 0 0 1-.576-3.131c-.065-.416-.112-.75-.142-1.003-.033-.274-.038-.37-.036-.337l-15.98.799c.138 2.766 1.5 10.008 3.571 16.795l15.303-4.671ZM9.917 16.318c-.111-2.217.136-3.58.397-4.33.123-.355.238-.54.295-.62a.479.479 0 0 1 .12-.124L1.473-1.807C-4.853 2.679-6.41 10.167-6.062 17.117l15.98-.8Zm.811-5.074c.255-.181 1.296-.614 3.66-.445 2.169.156 4.345.743 5.686 1.18l4.957-15.213c-1.949-.635-5.509-1.64-9.499-1.926-3.795-.272-9.336.003-14.06 3.353l9.256 13.05ZM16.942-1.33l.069-.066-.014.013-.096.092a10.15 10.15 0 0 0-.175.172L28.094 10.14a5.85 5.85 0 0 1-.104.102l-.024.023.007-.006.012-.011.04-.038.14-.135L16.941-1.33Zm-.217.212c-4.253 4.295-6.018 9.72-6.804 13.495-.81 3.897-.779 7.03-.764 7.65l15.995-.37c.002.05-.037-1.756.434-4.02.496-2.386 1.365-4.342 2.509-5.498L16.725-1.118Zm-7.57 20.944c-.002.526.038 1.138.057 1.447l15.972-.945a49.75 49.75 0 0 1-.03-.55v.08l-16-.032Zm.057 1.448c.09 1.518.21 3.748-.133 6.201l15.846 2.216c.58-4.15.354-7.75.259-9.364l-15.972.947Zm-.133 6.2c-.756 5.406.907 10.882 4.741 14.882l11.551-11.07c-.32-.335-.549-.865-.446-1.595L9.079 27.475Zm4.742 14.883c.408.426.826.818 1.248 1.178l10.396-12.162a1.334 1.334 0 0 1-.095-.089L13.821 42.357Zm.6-10.363a146.489 146.489 0 0 0-5.38 6.1L21.347 48.32a130.624 130.624 0 0 1 4.768-5.407L14.42 31.994Zm12.315-2.017a.28.28 0 0 1 .058.091c.002.007 0 .002-.002-.015a.475.475 0 0 1 .005-.1l-15.846-2.216c-.672 4.806.788 9.716 4.234 13.311l11.551-11.071Zm.061-.025c.606-4.33.374-8.049.274-9.736L11.1 21.16c.093 1.576.222 3.933-.148 6.576l15.846 2.215Zm.274-9.736a42.67 42.67 0 0 1-.027-.475l-15.983.722c.01.228.026.497.038.698l15.972-.945ZM24.36 26.09a5.809 5.809 0 0 1-.352.288c-.067.05-.11.078-.121.086-.022.014.01-.008.097-.056a5.356 5.356 0 0 1 .724-.331 4.18 4.18 0 0 1 .35-.116 1.61 1.61 0 0 1 .165-.038c.013-.002-.055.01-.192.009a3.396 3.396 0 0 1-.717-.09l3.574-15.596c-3.625-.831-7.009.178-8.804.852-1.826.685-3.932 1.773-5.337 3.019L24.36 26.09Zm-.045-.248a5.353 5.353 0 0 1-2.735-1.646c-.796-.89-1.027-1.727-1.083-1.986l15.638-3.383c-.357-1.652-1.102-3.59-2.632-5.301-1.597-1.784-3.602-2.82-5.616-3.28L24.314 25.84Zm-3.819-3.633c.63 2.913.567 4.488.452 5.291-.108.757-.298 1.233-.808 2.365l14.59 6.567c.578-1.283 1.607-3.517 2.057-6.67.444-3.105.277-6.637-.652-10.934l-15.639 3.381Zm-.355 7.654c-.206.456-.53 1.172-.821 1.953l14.998 5.573c.071-.192.17-.417.412-.956l-14.59-6.57Zm-.82 1.948-.14.376 14.995 5.583.14-.376-14.994-5.583Zm-.138.372c-.312.838-.828 2.189-1.166 3.577l15.546 3.786c.07-.29.215-.708.612-1.772l-14.992-5.59Zm6.631-2.53c.523.002.83.227.924.325l-11.552 11.07c2.727 2.847 6.497 4.593 10.58 4.605l.048-16Zm-2.64 7.823c.235.058.426.129.586.2.142.063.392.185.721.41l-9.015 13.218c1.088.742 2.432 1.345 3.83 1.695l3.878-15.523Zm.208 14.456a4.258 4.258 0 0 1-.533.214c-.072.022-.054.012.082-.016l-3.227-15.67c-1.11.228-2.166.539-3.138.997L23.38 51.93Zm-.451.198c1.771-.364 3.832-.855 5.707-1.909 2.192-1.23 3.438-2.844 4.068-3.643l-12.57-9.9c-.128.163-.19.24-.227.283-.031.037-.003.001.07-.072a3.978 3.978 0 0 1 .823-.618c.29-.162.433-.19.245-.131-.091.027-.24.07-.47.125a23.8 23.8 0 0 1-.873.194L22.93 52.13Zm9.774-5.55c.258-.328.423-.536.657-.796L21.44 35.11c-.598.667-1.032 1.22-1.303 1.565l12.566 9.904Zm1.852-2.555c-.254.508-.56.984-.91 1.422-.313.39-.612.68-.584.652L21.74 34.794c.029-.029-.271.262-.583.652a7.997 7.997 0 0 0-.911 1.422l14.31 7.156Zm-1.19 1.751c-.017.02-1.402 1.682-4.076 2.068a7.251 7.251 0 0 1-2.967-.182c-.456-.127-.821-.291-.572-.188l6.13-14.78c-.008-.003-.601-.261-1.274-.448a8.753 8.753 0 0 0-3.602-.238c-3.098.447-4.934 2.397-5.57 3.109l11.932 10.66Zm-7.61 1.7c-1.457-.603-2.288-1.508-2.67-1.999a5.644 5.644 0 0 1-.976-1.923l15.382-4.405a10.357 10.357 0 0 0-1.773-3.492c-.73-.938-1.971-2.19-3.844-2.965l-6.12 14.784Zm-3.646-3.92a6.125 6.125 0 0 1-.232-1.817 6.88 6.88 0 0 1 1.292-3.851l13.02 9.297c2.577-3.607 1.483-7.402 1.301-8.038l-15.38 4.409Zm1.06-5.67c-.03.044-.034.04-.001.01.033-.032.088-.08.165-.13a1.456 1.456 0 0 1 .43-.186c.086-.02.081-.005-.041-.011a3.025 3.025 0 0 1-.547-.093l-3.884 15.522c3.874.97 11.673 1.504 16.898-5.812l-13.02-9.3Zm14.295 16.193c-.332.071-.215-.005.205.059a3.8 3.8 0 0 1 1.602.67c.5.357.746.71.809.807.047.073-.009.004-.157-.366L25.07 61.191c.617 1.541 1.932 4.51 4.89 6.626 3.337 2.388 7.23 2.683 10.859 1.906l-3.353-15.645Zm2.46 1.171c.292.731.233.997.112-.073a49.203 49.203 0 0 1-.227-3.22c-.119-2.73-.142-6.276-.037-10.047l-15.994-.45c-.114 4.078-.092 8.012.046 11.192.07 1.582.17 3.062.313 4.32.107.952.323 2.698.93 4.217l14.857-5.94Zm-.152-13.343a8.94 8.94 0 0 0-.383-2.848L24.08 43.712a7.06 7.06 0 0 1-.302-2.248l15.994.442Zm-.111-1.605a11.955 11.955 0 0 0-.353-1.674l-15.381 4.406a4.039 4.039 0 0 1-.119-.565l15.853-2.167Zm-.352-1.673c-.886-3.093-3.146-6.206-6.708-7.682l-6.125 14.78a4.651 4.651 0 0 1-1.807-1.3 3.797 3.797 0 0 1-.742-1.394l15.381-4.404ZM32.6 30.946c-.432-.18-3.338-1.518-6.958-.592l3.965 15.501c-1.946.498-3.458-.263-3.13-.128L32.6 30.946Zm2.798 9.046c.044-.177.16-.524.546-1.557l-14.991-5.593c-.286.766-.788 2.08-1.103 3.375l15.55 3.776Zm.548-1.563.14-.379-14.994-5.58-.141.378 14.995 5.58Zm.142-.381c.048-.13.13-.32.365-.842l-14.59-6.566c-.187.413-.503 1.107-.772 1.831l14.997 5.577Zm.364-.841c.609-1.352 1.688-3.703 2.181-7.028.489-3.291.355-7.098-.652-11.752l-15.638 3.381c.684 3.164.616 4.997.464 6.022-.147.992-.416 1.634-.945 2.81l14.59 6.567Zm1.53-18.78c-.66-3.047-2.302-6.11-5.35-8.172-2.974-2.011-6.332-2.423-9.248-2.121l1.649 15.915c.29-.03-.408.107-1.365-.54-1.031-.698-1.3-1.582-1.325-1.7l15.638-3.383ZM23.385 8.134c-3.348.346-6.128 1.621-7.35 2.24l7.234 14.271c.202-.102.524-.25.895-.38.386-.134.686-.197.868-.216L23.386 8.134Zm-7.35 2.24c-.286.146-.553.288-.806.43l7.8 13.969c.07-.04.149-.081.24-.127l-7.234-14.272Zm11.067 8.075c.092-1.103.306-2.584.76-4.012.468-1.47 1.046-2.434 1.577-2.97L18.078.203c-5.604 5.653-6.656 13.739-6.92 16.925l15.945 1.322Zm2.337-6.981c.418-.422 1.102-.885 2.8-.857l.264-15.998c-5.371-.088-10.488 1.618-14.426 5.59L29.44 11.467Zm2.8-.857c3.95.065 6.416 1.995 7.973 3.834L52.426 4.11C48.943-.007 42.48-5.223 32.502-5.387l-.262 15.998Zm7.972 3.834c1.43 1.69 2.148 3.353 2.342 3.93l15.164-5.105c-.745-2.212-2.38-5.719-5.292-9.16L40.212 14.445Zm10.733-6.582c-4.39-.446-10.724.04-14.51 5.45l13.11 9.172a3.69 3.69 0 0 1-.948.938c-.327.22-.58.308-.669.333-.08.024-.022-.004.227-.018a7.606 7.606 0 0 1 1.172.043l1.618-15.918Zm-14.51 5.45c-1.962 2.805-2.38 5.863-2.3 8.242.078 2.359.653 4.57 1.262 6.353 1.207 3.536 3.083 6.86 4.022 8.545l13.975-7.793c-1.03-1.845-2.185-3.957-2.855-5.922-.33-.967-.407-1.521-.413-1.715-.006-.172.058.55-.58 1.462l-13.111-9.171Zm2.985 23.14a74.046 74.046 0 0 1 .505.918l.004.009a.023.023 0 0 0 0-.001 1.369 1.369 0 0 1-.029-.059 5.825 5.825 0 0 1-.119-.27l14.791-6.101c-.33-.803-.992-1.955-1.179-2.29L39.42 36.453Zm.361.598c1.106 2.679 2.563 4.466 3.226 5.294l12.492-9.996c-.548-.686-.75-.972-.927-1.4l-14.79 6.102Zm3.227 5.295a58.31 58.31 0 0 1 .226.287l-.04-.057 13.124-9.151c-.32-.46-.687-.912-.82-1.078l-12.49 10Zm4.531-12.032c-.835.24-3.45 1-5.618 3.422-2.343 2.619-3.13 5.942-2.97 9.236l15.982-.786c-.009-.17.027.055-.114.525a4.563 4.563 0 0 1-.974 1.694c-.985 1.1-2.106 1.35-1.872 1.282l-4.434-15.373Zm-8.572 11.635c-.123 1.559-1.097 9.674-1.563 12.37l15.767 2.72c.555-3.212 1.587-11.817 1.746-13.83l-15.95-1.26Zm-1.563 12.37a7.24 7.24 0 0 1-.133.635c-.035.13-.053.166-.04.133a2.12 2.12 0 0 1 .162-.295 3.074 3.074 0 0 1 .843-.862c.127-.085.206-.12.207-.12l-.057.022c-.04.015-.1.035-.182.06a9.124 9.124 0 0 1-.74.186l3.355 15.644c2.547-.546 5.76-1.552 8.349-4.171 2.637-2.67 3.557-5.925 4.004-8.513L37.404 54.32Zm15.841-19.67c.134-.062.17-.066.074-.037a4.873 4.873 0 0 1-.422.105 8.723 8.723 0 0 1-1.317.166l.75 15.983c2.352-.11 5.3-.613 7.653-1.705l-6.737-14.512Zm-1.665.234c-.495.023-.626-.018-.462.01.077.014.311.058.655.178.174.06.432.16.742.314.275.136.791.415 1.371.888L43.772 48.671a9.023 9.023 0 0 0 2.744 1.511c.651.227 1.293.377 1.883.479 1.19.205 2.507.271 3.93.205l-.749-15.983Zm5.24 7.2c-.02-.401.204 1.46-1.395 3.396-1.537 1.861-3.67 2.233-2.842 2l-4.325-15.404c-.046.013-3.029.623-5.17 3.216-2.203 2.667-2.338 5.754-2.25 7.57l15.982-.778Zm-4.23 5.395c.078-.023.464-.128.872-.27l-5.283-15.103.115-.039.05-.016c.005 0 .002 0-.015.005l-.031.009-.047.013 4.339 15.4Zm-6.817-1.615c.286.232.588.454.906.664l8.812-13.355c.126.083.252.175.377.277L45.773 45.863Zm.905.663c2.442 1.612 5.135 2.077 7.3 2.163 2.232.09 4.58-.199 6.902-.678l-3.234-15.67c-1.561.322-2.532.38-3.03.36-.234-.009-.251-.031-.112.005.142.038.517.156.988.467l-8.814 13.353Zm14.25 1.475a9.006 9.006 0 0 1-.021.005l-3.203-15.677.022-.004h-.001l-.01.002-.117.024 3.33 15.65ZM53.84 34.324c.084-.078.076-.058-.042.02a4.14 4.14 0 0 1-.554.305l6.738 14.512c1.993-.926 3.607-2.047 4.787-3.15L53.84 34.324Z" fill="#7B4AE2" fill-opacity=".5" mask="url(#a)"/></svg>