<svg width="54" height="54" fill="none" xmlns="http://www.w3.org/2000/svg"><g fill-rule="evenodd" clip-rule="evenodd" fill="#7B4AE2" fill-opacity=".5" clip-path="url(#a)"><path d="M14.256 6.544S13.422.753 26.776.753c13.957 0 12.88 6.983 12.88 6.983v11.538c0 6.978-7.103 6.863-7.103 6.863h-12.64c-7.58 0-7.34 7.46-7.34 7.46v6.253H8.122s-7.46.477-7.46-12.998 8.546-12.506 8.546-12.506h17.807v-1.802H14.27l-.014-6Zm7.786.536a2.29 2.29 0 0 0-2.293-2.292 2.29 2.29 0 0 0-2.292 2.292 2.29 2.29 0 0 0 2.292 2.293 2.29 2.29 0 0 0 2.293-2.293Z"/><path d="M39.677 47.295s.834 5.791-12.521 5.791c-13.957 0-12.878-6.982-12.878-6.982V34.565c0-6.978 7.101-6.863 7.101-6.863h12.64c7.58 0 7.34-7.46 7.34-7.46V13.99h4.452s7.46-.478 7.46 12.997c0 13.476-8.547 12.506-8.547 12.506H26.918v1.802h12.744l.015 6Zm-7.787-.536a2.29 2.29 0 0 0 2.293 2.293 2.29 2.29 0 0 0 2.293-2.293 2.29 2.29 0 0 0-2.293-2.293 2.29 2.29 0 0 0-2.293 2.293Z"/></g><defs><clipPath id="a"><path fill="#fff" d="M0 0h54v54H0z"/></clipPath></defs></svg>