<svg width="64" height="64" fill="none" xmlns="http://www.w3.org/2000/svg"><g fill="#7B4AE2" fill-opacity=".5"><path d="M32 0C14.327 0 0 14.327 0 32c0 17.673 14.327 32 32 32 17.673 0 32-14.327 32-32C64 14.327 49.673 0 32 0Zm0 3.254c15.876 0 28.746 12.87 28.746 28.746S47.876 60.746 32 60.746 3.254 47.876 3.254 32 16.124 3.254 32 3.254Z"/><path d="M32.361 9.22c12.581 0 22.78 10.199 22.78 22.78 0 12.58-10.199 22.78-22.78 22.78-12.58 0-22.78-10.2-22.78-22.78 0-3.075.61-6.007 1.714-8.683a8.859 8.859 0 1 0 12.383-12.383 22.713 22.713 0 0 1 8.683-1.714Z"/></g></svg>