<svg width="64" height="64" fill="none" xmlns="http://www.w3.org/2000/svg"><path d="M32 12.75c-8.533 0-13.867 4.267-16 12.8 3.2-4.267 6.933-5.867 11.2-4.8 2.434.609 4.174 2.375 6.1 4.33 3.138 3.184 6.769 6.87 14.7 6.87 8.533 0 13.867-4.267 16-12.8-3.2 4.267-6.933 5.867-11.2 4.8-2.434-.609-4.174-2.375-6.1-4.33-3.138-3.184-6.769-6.87-14.7-6.87Zm-16 19.2c-8.533 0-13.867 4.267-16 12.8 3.2-4.267 6.933-5.867 11.2-4.8 2.434.609 4.174 2.375 6.1 4.33 3.138 3.184 6.769 6.87 14.7 6.87 8.533 0 13.867-4.267 16-12.8-3.2 4.267-6.933 5.867-11.2 4.8-2.434-.609-4.174-2.375-6.1-4.33-3.138-3.184-6.769-6.87-14.7-6.87Z" fill="#7B4AE2" fill-opacity=".5"/></svg>