<svg width="64" height="64" fill="none" xmlns="http://www.w3.org/2000/svg"><g clip-path="url(#a)"><path fill-rule="evenodd" clip-rule="evenodd" d="M59 0H5a5 5 0 0 0-5 5v54a5 5 0 0 0 5 5h54a5 5 0 0 0 5-5V5a5 5 0 0 0-5-5ZM37.63 57.024v-6.905a13.276 13.276 0 0 0 4.081 2.362c1.469.526 2.952.788 4.449.788.878 0 1.645-.079 2.3-.237.655-.158 1.202-.378 1.641-.658.439-.28.767-.612.983-.993.215-.381.323-.795.323-1.24 0-.605-.172-1.144-.518-1.619-.345-.475-.817-.913-1.414-1.316a14.785 14.785 0 0 0-2.128-1.165 72.92 72.92 0 0 0-2.656-1.144c-2.419-1.007-4.222-2.237-5.41-3.69C38.095 39.754 37.5 38 37.5 35.942c0-1.611.324-2.995.972-4.154a8.253 8.253 0 0 1 2.645-2.859c1.116-.748 2.408-1.298 3.877-1.65a19.928 19.928 0 0 1 4.664-.529c1.613 0 3.042.097 4.287.291a16.87 16.87 0 0 1 3.444.896v6.451a10.417 10.417 0 0 0-1.695-.949c-.612-.273-1.242-.5-1.89-.68a14.396 14.396 0 0 0-3.757-.528c-.792 0-1.512.075-2.16.226-.648.151-1.194.364-1.64.637-.447.273-.793.6-1.038.982a2.33 2.33 0 0 0-.367 1.283c0 .518.137.982.41 1.392.274.41.663.799 1.167 1.166.504.366 1.116.726 1.836 1.078.72.353 1.533.716 2.44 1.09a27.198 27.198 0 0 1 3.337 1.65c.986.584 1.832 1.242 2.537 1.975a7.684 7.684 0 0 1 1.62 2.514c.374.942.561 2.04.561 3.29 0 1.727-.328 3.176-.983 4.348a7.975 7.975 0 0 1-2.667 2.849c-1.123.726-2.43 1.248-3.92 1.564-1.49.317-3.062.475-4.718.475-1.699 0-3.315-.144-4.848-.431-1.533-.288-2.861-.72-3.984-1.295ZM35 32.935h-8.88V58.25h-7.034V32.935H10.25V27.25H35v5.685Z" fill="#7B4AE2" fill-opacity=".5"/></g><defs><clipPath id="a"><path fill="#fff" d="M0 0h64v64H0z"/></clipPath></defs></svg>